<svg width="100" height="100" viewBox="0 0 100 100" fill="none" xmlns="http://www.w3.org/2000/svg">
  <!-- Background circle with clean gradient -->
  <defs>
    <linearGradient id="simpleBg" x1="0%" y1="0%" x2="100%" y2="100%">
      <stop offset="0%" style="stop-color:#3B82F6;stop-opacity:1" />
      <stop offset="100%" style="stop-color:#1E40AF;stop-opacity:1" />
    </linearGradient>
  </defs>
  
  <!-- Main background circle -->
  <circle cx="50" cy="50" r="50" fill="url(#simpleBg)"/>
  
  <!-- Brain/AI icon -->
  <path d="M35 35 Q35 25 45 25 L55 25 Q65 25 65 35 Q65 45 55 45 L45 45 Q35 45 35 35 Z" fill="white" opacity="0.9"/>
  
  <!-- Neural network dots -->
  <circle cx="40" cy="32" r="2" fill="#3B82F6"/>
  <circle cx="50" cy="30" r="2.5" fill="#3B82F6"/>
  <circle cx="60" cy="32" r="2" fill="#3B82F6"/>
  <circle cx="45" cy="38" r="1.5" fill="#3B82F6"/>
  <circle cx="55" cy="38" r="1.5" fill="#3B82F6"/>
  
  <!-- Connection lines -->
  <path d="M40 32 L50 30" stroke="#3B82F6" stroke-width="1" opacity="0.6"/>
  <path d="M50 30 L60 32" stroke="#3B82F6" stroke-width="1" opacity="0.6"/>
  <path d="M40 32 L45 38" stroke="#3B82F6" stroke-width="1" opacity="0.6"/>
  <path d="M60 32 L55 38" stroke="#3B82F6" stroke-width="1" opacity="0.6"/>
  <path d="M50 30 L45 38" stroke="#3B82F6" stroke-width="1" opacity="0.6"/>
  <path d="M50 30 L55 38" stroke="#3B82F6" stroke-width="1" opacity="0.6"/>
  
  <!-- Clean border -->
  <circle cx="50" cy="50" r="50" fill="none" stroke="rgba(255,255,255,0.1)" stroke-width="1"/>
</svg>
